<svg id="SvgjsSvg1000" xmlns="http://www.w3.org/2000/svg" version="1.1" xmlns:xlink="http://www.w3.org/1999/xlink" xmlns:svgjs="http://svgjs.com/svgjs" width="19" height="17" viewBox="0 0 19 17"><title>bubble</title><desc>Created with Avocode.</desc><defs id="SvgjsDefs1001"></defs><path id="SvgjsPath1007" d="M871.5 175C875.09 175 878 177.91 878 181.5C878 185.09 875.09 188 871.5 188C867.91 188 865 185.09 865 181.5C865 177.91 867.91 175 871.5 175ZM882 171C883.104 171 884 171.895 884 173C884 174.105 883.104 175 882 175C880.895 175 880 174.105 880 173C880 171.895 880.895 171 882 171Z " fill="#fd8d7b" fill-opacity="1" transform="matrix(1,0,0,1,-865,-171)"></path></svg>